<?xml version="1.0" encoding="utf-8"?>
<!-- Generator: Adobe Illustrator 21.0.0, SVG Export Plug-In . SVG Version: 6.00 Build 0)  -->
<svg version="1.1" id="Layer_1" xmlns="http://www.w3.org/2000/svg" xmlns:xlink="http://www.w3.org/1999/xlink" x="0px" y="0px"
	 viewBox="0 0 245 51.2" style="enable-background:new 0 0 245 51.2;" xml:space="preserve">
<style type="text/css">
	.st0{fill:#0167F3;}
</style>
<g>
	<g>
		<path class="st0" d="M32.2,43.1c0,2.9,2.3,5.2,5.2,5.2s5.2-2.3,5.2-5.2s-2.4-5.2-5.2-5.2S32.2,40.3,32.2,43.1z M35.6,43.1
			c0-1,0.8-1.8,1.8-1.8s1.8,0.8,1.8,1.8S38.4,45,37.4,45S35.6,44.1,35.6,43.1z"/>
		<path class="st0" d="M44.2,43.1c0,2.9,2.3,5.2,5.2,5.2s5.2-2.3,5.2-5.2s-2.4-5.2-5.2-5.2S44.2,40.3,44.2,43.1z M47.6,43.1
			c0-1,0.8-1.8,1.8-1.8s1.8,0.8,1.8,1.8S50.4,45,49.4,45S47.6,44.1,47.6,43.1z"/>
		<path class="st0" d="M61.8,16.1c-0.4-0.6-1.4-1-2.2-1h-32L25.2,4.7c-0.2-1-1.1-1.8-2.1-1.8h-5.9c-1.2,0-2.1,0.8-2.1,2
			S15.9,7,17.2,7h4.3l5.9,26.8c0.2,1,1.1,1.8,2.1,1.8h25.2c1.4,0,2.6-0.8,2.8-2.2l4.7-14.5C62.7,17.7,62.5,16.7,61.8,16.1z
			 M37.9,31.5h-6.5l-1.2-5.8h7.6v5.8H37.9z M37.9,23.7h-8L29,19.2h8.9V23.7z M46.6,31.5h-6.9v-5.8h6.9V31.5z M46.6,23.7h-6.9v-4.5
			h6.9V23.7z M53.9,31.5h-5.3v-5.8h7.2L53.9,31.5z M56.4,23.7h-7.9v-4.5h9.4L56.4,23.7z"/>
	</g>
	<g>
		<path class="st0" d="M24.9,35.4c0,0.1,0,0.2-0.1,0.2h-5c-0.8,0-1.5-0.7-1.5-1.5c0-0.4,0.2-0.8,0.4-1c0.3-0.3,0.6-0.4,1-0.4h1.8
			c0.4,0,0.8-0.2,1-0.4s0.3-0.4,0.4-0.6c0.2-1-0.6-1.9-1.6-1.9H10.5c-0.8,0-1.5-0.7-1.5-1.5c0-0.4,0.2-0.8,0.4-1
			c0.3-0.3,0.6-0.4,1-0.4h5c0.4,0,0.8-0.2,1-0.4c0.2-0.2,0.3-0.4,0.4-0.6c0.2-1-0.6-1.9-1.6-1.9h-1.5c-0.8,0-1.5-0.7-1.5-1.5
			c0-0.4,0.2-0.8,0.4-1c0.3-0.3,0.6-0.4,1-0.4h4.9c0.4,0,0.8-0.2,1-0.4c0.3-0.3,0.4-0.6,0.4-1c0-0.8-0.6-1.4-1.3-1.5h-0.1h-0.2H4
			c-0.8,0-1.5-0.7-1.5-1.5c0-0.4,0.2-0.8,0.4-1c0.3-0.3,0.6-0.4,1-0.4h9.8c0.4,0,0.7-0.2,0.9-0.4s0.3-0.4,0.4-0.6
			c0.2-1-0.6-1.9-1.6-1.9h-2.6c-0.8,0-1.5-0.7-1.5-1.5c0-0.4,0.2-0.8,0.4-1c0.3-0.3,0.6-0.4,1-0.4h8.2c0.1,0,0.1,0,0.1,0.1
			L24.9,35.4z"/>
		<path class="st0" d="M17.3,34.1c0,0.4-0.2,0.8-0.4,1c-0.3,0.3-0.6,0.4-1,0.4h-3.1c-0.8,0-1.5-0.6-1.5-1.5c0-0.4,0.2-0.8,0.4-1
			c0.3-0.3,0.6-0.4,1-0.4h3.1C16.7,32.7,17.3,33.4,17.3,34.1z"/>
		<path class="st0" d="M10.8,22.5c0,0.4-0.2,0.8-0.4,1c-0.2,0.3-0.6,0.4-1,0.4h-3C5.7,24,5,23.3,5,22.5c0-0.4,0.2-0.8,0.4-1
			c0.3-0.3,0.6-0.4,1-0.4h3C10.2,21.1,10.8,21.8,10.8,22.5z"/>
	</g>
	
</g>
</svg>
