<svg id="logo_Pos" data-name="logo Pos" xmlns="http://www.w3.org/2000/svg" width="353.196" height="100" viewBox="0 0 353.196 100">
  <path id="Path_148" data-name="Path 148" d="M0-1H353.2V99H0Z" transform="translate(0 1)" fill="#ff6f00"/>
  <g id="Group_6" data-name="Group 6" transform="translate(63 19.507)">
    <path id="Path_107" data-name="Path 107" d="M65.471,47.016a7.236,7.236,0,0,1,5.887,1.3,5.026,5.026,0,0,1-.035,7.893,7.149,7.149,0,0,1-8.635-.049,5.03,5.03,0,0,1-1.427-6,5.449,5.449,0,0,1,1.679-2.019,6.322,6.322,0,0,1,2.528-1.114Zm.841,3.395a1.975,1.975,0,0,0-.623,3.3,2.151,2.151,0,0,0,2.038.371,1.984,1.984,0,0,0,.94-2.974,2.043,2.043,0,0,0-2.364-.7Z" transform="translate(-49.712 -15.025)" fill="#fff"/>
    <path id="Path_108" data-name="Path 108" d="M74.845,47.106a9,9,0,0,1,5.767.636,27.922,27.922,0,0,1-1.194,2.686,4.285,4.285,0,0,0-2.972-.67.45.45,0,0,0-.217.106.376.376,0,0,0-.117.194.349.349,0,0,0,.021.22.4.4,0,0,0,.152.174c1.072.613,2.539.4,3.494,1.212a2.743,2.743,0,0,1,.894,3.146,4.2,4.2,0,0,1-3.331,2.658,9.322,9.322,0,0,1-6.085-1c.431-.953.856-1.9,1.33-2.84,1,.55,2.154,1.254,3.4.971a.51.51,0,0,0,.246-.116.427.427,0,0,0,.136-.217.391.391,0,0,0-.019-.248.446.446,0,0,0-.168-.2c-.847-.413-1.889-.363-2.725-.807a2.832,2.832,0,0,1-1.181-1.019,2.409,2.409,0,0,1-.388-1.424,3.673,3.673,0,0,1,2.958-3.452Z" transform="translate(-47.001 -15.026)" fill="#fff"/>
    <path id="Path_109" data-name="Path 109" d="M115.067,47.014a7.311,7.311,0,0,1,5.775,1.194,5.04,5.04,0,0,1,1.185,6.787,5.939,5.939,0,0,1-2.343,1.965,6.793,6.793,0,0,1-3.134.648,6.7,6.7,0,0,1-3.158-.74,5.8,5.8,0,0,1-2.28-2.084,5.151,5.151,0,0,1-.481-4.052,5.3,5.3,0,0,1,1.651-2.4A6.271,6.271,0,0,1,115.067,47.014Zm.82,3.4a2.009,2.009,0,0,0-.893,2.974,2.188,2.188,0,0,0,2.474.664,2.08,2.08,0,0,0,.985-2.671,1.871,1.871,0,0,0-1.057-.957,2.189,2.189,0,0,0-1.505-.011Z" transform="translate(-36.837 -15.025)" fill="#fff"/>
    <path id="Path_110" data-name="Path 110" d="M141.479,47.778c2.093-1.389,5.084-1.056,7.259.023a25.936,25.936,0,0,1-1.292,2.632,3.84,3.84,0,0,0-3.017-.631c-.446.19-.2.7.2.8,1.083.374,2.378.363,3.281,1.1a2.9,2.9,0,0,1,.451,3.956,5.084,5.084,0,0,1-4.407,1.957,10.466,10.466,0,0,1-4.562-1.064,15.81,15.81,0,0,1,1.286-2.891c1.014.485,2.062,1.2,3.287.973a.569.569,0,0,0,.28-.075.477.477,0,0,0,.189-.2.407.407,0,0,0,.04-.257.435.435,0,0,0-.122-.236c-1.013-.571-2.387-.41-3.3-1.155-1.747-1.236-1.276-3.828.427-4.931Z" transform="translate(-29.315 -15.028)" fill="#fff"/>
    <path id="Path_111" data-name="Path 111" d="M52.032,47.064c2.16,0,4.332-.1,6.487.078a3.6,3.6,0,0,1,3.331,2.183,3.817,3.817,0,0,1-.8,4.065c-1.342,1.02-3.2.877-4.853.921-.026,1.007.055,2.017-.058,3.021-1.351-.031-2.7-.041-4.047,0A4.368,4.368,0,0,1,52,56.374c.035-3.115-.029-6.211.032-9.313ZM56.213,49.9c0,.587,0,1.176.044,1.765a3.464,3.464,0,0,0,1.456-.239.856.856,0,0,0,.272-.281.741.741,0,0,0,.021-.723.842.842,0,0,0-.255-.293c-.434-.3-1.031-.179-1.54-.218Z" transform="translate(-52 -14.982)" fill="#fff"/>
    <path id="Path_112" data-name="Path 112" d="M84.483,47.062c1.4-.021,2.8-.015,4.2,0,.038,3.39.07,6.787-.018,10.174-1.328.2-2.751,0-4.114.1a12.312,12.312,0,0,1-.09-2.362c0-2.637-.029-5.274.018-7.911Z" transform="translate(-43.577 -14.979)" fill="#fff"/>
    <path id="Path_113" data-name="Path 113" d="M89.628,47.073c1.36,0,2.722-.06,4.076,0C95,48.765,96,50.629,97.329,52.3c-.21-1.736-.081-3.488-.125-5.23a37.728,37.728,0,0,1,4.035.023c-.038,3.405.018,6.813-.026,10.221-1.362-.073-2.74.057-4.093-.057-1.266-1.666-2.259-3.491-3.561-5.134.119,1.708.081,3.424.052,5.137-1.33.018-2.667.068-3.994-.026.023-3.392,0-6.785,0-10.177Z" transform="translate(-42.236 -14.984)" fill="#fff"/>
    <path id="Path_114" data-name="Path 114" d="M100.531,47.062a57.342,57.342,0,0,1,6.09.132,6.2,6.2,0,0,1,2.979,1.133,5.219,5.219,0,0,1,1.84,2.376,5.546,5.546,0,0,1,0,2.871,5.669,5.669,0,0,1-4.917,3.587,55.8,55.8,0,0,1-6,.1V47.059Zm4.145,3.169v3.93a2.622,2.622,0,0,0,2.595-1.121,2.233,2.233,0,0,0-.388-2.232,2.843,2.843,0,0,0-2.2-.576Z" transform="translate(-39.406 -14.98)" fill="#fff"/>
    <path id="Path_115" data-name="Path 115" d="M121.686,47.055c1.365.023,2.74-.065,4.1.041,1.234,1.723,2.33,3.522,3.581,5.24-.1-1.757-.127-3.517-.1-5.279,1.348.013,2.7-.065,4.041.052-.04,3.4-.016,6.805,0,10.208-1.388-.018-2.78,0-4.169,0-1.126-1.742-2.267-3.483-3.493-5.175.067,1.713.069,3.429.029,5.142-1.33.023-2.661.029-3.992,0q-.023-5.113,0-10.224Z" transform="translate(-33.913 -14.981)" fill="#fff"/>
    <path id="Path_116" data-name="Path 116" d="M132.607,47.064c2.591,0,5.188-.062,7.779.039-.029.914,0,1.817-.026,2.741-1.213-.013-2.427,0-3.641,0a8.448,8.448,0,0,0,0,.945c1.071.031,2.143.036,3.2,0a11.959,11.959,0,0,1,.093,2.627c-1.079.041-2.16.031-3.243,0a2.728,2.728,0,0,0-.049,1.106c1.243,0,2.489-.023,3.732,0a18.666,18.666,0,0,1-.069,2.8c-2.571-.031-5.144-.042-7.719,0a4.984,4.984,0,0,1-.089-.937c.026-3.115,0-6.229.018-9.344Z" transform="translate(-31.085 -14.982)" fill="#fff"/>
    <path id="Path_117" data-name="Path 117" d="M148.128,47.076c1.423-.028,2.853-.067,4.274.021-.044,3.346,0,6.694-.023,10.039l-.1.138a33.015,33.015,0,0,1-4.123-.062c-.058-3.374,0-6.748-.031-10.123Z" transform="translate(-27.048 -14.981)" fill="#fff"/>
    <path id="Path_118" data-name="Path 118" d="M156.127,47.117q2.365-.13,4.735-.041c1.353,3.413,2.727,6.818,4.055,10.242-1.484,0-2.971-.031-4.46.016a6.971,6.971,0,0,1-.387-1.3c-1.083,0-2.169-.031-3.246.018-.062.42-.155.836-.222,1.256-1.481.023-2.961-.028-4.44.034a6.406,6.406,0,0,1,.582-1.773c1.127-2.816,2.33-5.614,3.387-8.451Zm1.491,6.445c.555.021,1.112.023,1.674,0-.244-1.155-.679-2.271-.874-3.436a20,20,0,0,1-.812,3.426Z" transform="translate(-26.001 -14.981)" fill="#fff"/>
    <path id="Path_119" data-name="Path 119" d="M189.825,21.413a28.2,28.2,0,0,1,19.348.629,26.753,26.753,0,0,1,11.853,9.306c-.975-.027-1.961.085-2.932,0a25.023,25.023,0,0,0-14.635-8.576,13.735,13.735,0,0,0-3.153-.326,23.6,23.6,0,0,1,6.881,6.594,18.3,18.3,0,0,1,1.552,2.539c-.7.069-1.413.035-2.117.061a31.816,31.816,0,0,0-6.845-7.663,1.7,1.7,0,0,0-.356-.191c0,2.653.024,5.323-.014,7.984a3.259,3.259,0,0,1-1.529-.04c-.019-2.654-.025-5.307,0-7.944a1.919,1.919,0,0,0-.523.329,28.822,28.822,0,0,0-6.347,6.984,8.649,8.649,0,0,1-.544.876c-.728.048-1.459.069-2.187.053a20.591,20.591,0,0,1,4.3-6.071,24.692,24.692,0,0,1,4.41-3.529,7.559,7.559,0,0,0-2.057.159,24.9,24.9,0,0,0-11.956,5.092,26.285,26.285,0,0,0-4.508,4.561c-.956.056-1.921.053-2.878.048a27.2,27.2,0,0,1,14.233-10.879Z" transform="translate(-19.92 -20)" fill="#fff"/>
    <path id="Path_120" data-name="Path 120" d="M214.223,30.24c2.581-.09,5.163-.106,7.746-.167a15.706,15.706,0,0,1,3.332.034,6.513,6.513,0,0,1,4.527,3.479,5.641,5.641,0,0,1,.234,3.959,13.075,13.075,0,0,1-2.13,3.98c1.2.088,2.4,0,3.592.056a18.409,18.409,0,0,1,5.2.4,8.88,8.88,0,0,1,3.818,2.542c.831.939,1.665,1.879,2.524,2.794a118.335,118.335,0,0,0-13.34,2.529A279.729,279.729,0,0,0,202.5,58.155q-12.729,4.511-25.087,9.9a10.132,10.132,0,0,1-1.705.685,11.076,11.076,0,0,1,1.154-1.221,92.312,92.312,0,0,1,14.005-11.245c5.357-3.566,10.987-6.724,16.679-9.754a2.468,2.468,0,0,1,1.277-.475,22.148,22.148,0,0,1,2.416.05c-1.277.841-2.69,1.481-4.01,2.258-5.576,3.067-11.174,6.137-16.426,9.7a60.6,60.6,0,0,0-7.609,6.045,5.028,5.028,0,0,0,1.4-.531q14.571-5.992,29.606-10.847c5.415-1.738,10.869-3.383,16.4-4.723a59.53,59.53,0,0,1,9.065-1.661.865.865,0,0,0-.168-.491,6.678,6.678,0,0,0-2.411-2.008,6.841,6.841,0,0,0-3.085-.7q-4.833,0-9.667.016a4.1,4.1,0,0,1,.719-.942,13.675,13.675,0,0,0,2.96-5.14,3.853,3.853,0,0,0-2.871-4.981,11.34,11.34,0,0,0-2.382-.114c-8.7,0-17.416.061-26.125.08-11.451,0-22.9.058-34.352.074.377-.3.717-.772,1.266-.716,2.323-.093,4.654-.048,6.978-.194,7.173-.125,14.348-.3,21.521-.478,1.685-.058,3.376-.029,5.06-.143,3.824-.035,7.642-.175,11.467-.218,1.878-.138,3.766-.1,5.649-.149Z" transform="translate(-23.372 -17.404)" fill="#fff"/>
    <path id="Path_121" data-name="Path 121" d="M201.787,32.764a6.917,6.917,0,0,1,2.916.241,3.519,3.519,0,0,1,1.883,1.64q-12.179-.026-24.358-.109c-7.674-.066-15.353-.05-23.024-.138a1.231,1.231,0,0,1,.836-.634c6.921-.2,13.859-.316,20.769-.509,1.527-.037,3.059-.026,4.584-.143C190.862,33.061,196.321,32.846,201.787,32.764Z" transform="translate(-24.173 -16.696)" fill="#fff"/>
    <path id="Path_122" data-name="Path 122" d="M156.789,36.235q25.5-.531,51.007-1.027a4.182,4.182,0,0,1,2.144.41,4.074,4.074,0,0,1,1.622,1.428c-17.989-.053-35.975-.151-53.961-.2a14.117,14.117,0,0,1-1.674-.045c.223-.265.476-.589.864-.568Z" transform="translate(-25.024 -16.055)" fill="#fff"/>
    <path id="Path_123" data-name="Path 123" d="M196.232,38.078c2.005-.077,4.019-.016,6.025-.154,3.693,0,7.384-.157,11.075-.178a3.508,3.508,0,0,1,3.321,1.857q-32.215-.011-64.414-.011a2.111,2.111,0,0,1,.782-.626q21.61-.441,43.225-.894Z" transform="translate(-25.981 -15.394)" fill="#fff"/>
    <path id="Path_124" data-name="Path 124" d="M149.751,41.43q34.125-.629,68.256-1.237a3.977,3.977,0,0,1,3.668,1.873c-17,.027-34.015-.016-51.025,0q-10.864,0-21.725-.013a1.512,1.512,0,0,1,.815-.621Z" transform="translate(-26.841 -14.759)" fill="#fff"/>
    <path id="Path_126" data-name="Path 126" d="M172.393,42.776c.723-.016,1.446-.032,2.174,0,.3-.04.2.3.244.462a23.188,23.188,0,0,0,2.782,8.547,1.6,1.6,0,0,0,.307.448c2.742.072,5.494-.064,8.234.064-.683.531-1.421.984-2.144,1.449-1.676.111-3.367-.024-5.05.064a15.817,15.817,0,0,0,1.889,2.476v.138c-.6.456-1.207.915-1.85,1.313a26.671,26.671,0,0,1-5.188-8.523,23.239,23.239,0,0,1-1.4-6.44Z" transform="translate(-20.751 -14.093)" fill="#fff"/>
    <path id="Path_127" data-name="Path 127" d="M182.589,42.769c.707,0,1.413,0,2.116.024a25.958,25.958,0,0,0,1.4,6.719,3.924,3.924,0,0,1,.321,1.032c-.6.313-1.153.714-1.731,1.061a29.482,29.482,0,0,1-1.474-4.307,21.164,21.164,0,0,1-.646-4.53Z" transform="translate(-18.107 -14.09)" fill="#fff"/>
    <path id="Path_129" data-name="Path 129" d="M220.12,48.1a18.372,18.372,0,0,1,2.742-.7,26.12,26.12,0,0,1-10.8,13.71,27.408,27.408,0,0,1-12.481,4.246,27.791,27.791,0,0,1-17.3-4.007.826.826,0,0,1-.3-.318c.87-.3,1.707-.69,2.571-1a26.189,26.189,0,0,0,8.845,2.9,8.217,8.217,0,0,0,2.049.17,28.142,28.142,0,0,1-5.182-4.116c-.272-.316-.658-.578-.8-.984.639-.22,1.241-.531,1.9-.716a26.713,26.713,0,0,0,4.475,4.439,2.488,2.488,0,0,0,.364.191c-.033-1.831,0-3.664-.016-5.5a2.2,2.2,0,0,1,.059-.8c.5-.226,1.033-.348,1.535-.563,0,2.261-.026,4.511.016,6.782a1.339,1.339,0,0,0,.582-.334A29.107,29.107,0,0,0,206,52.183c.757-.295,1.543-.512,2.311-.775a6.041,6.041,0,0,1,1.438-.371c2.942-.019,5.886.021,8.826-.019a25.609,25.609,0,0,0,1.554-2.919Zm-11.97,4.511a33.954,33.954,0,0,1-3.043,4.686,24.809,24.809,0,0,1-6.6,5.8,23.5,23.5,0,0,0,5.766-.955,24.536,24.536,0,0,0,13.282-9.552c-2.5-.077-5.011,0-7.516-.035a14.74,14.74,0,0,0-1.9.048Z" transform="translate(-18.259 -12.887)" fill="#fff"/>
  </g>
</svg>
